inDegrees=no
num_controls=7
num_derivatives=13
num_iterations=132
num_multipliers=7
num_parameters=0
num_slacks=7
num_states=26
objective=5.119577
objective_accelerations=0.629848
objective_balance=0.019858
objective_effort=0.163489
objective_height=4.255939
objective_ligament=0.050443
solver_duration=1446.978699
status=Solve_Succeeded
success=true
DataType=double
version=3
OpenSimVersion=4.4-2022-07-23-0e9fedc
endheader
time	/jointset/ground_pelvis/pelvis_tilt/value	/jointset/ground_pelvis/pelvis_tx/value	/jointset/ground_pelvis/pelvis_ty/value	/jointset/hip_l/hip_flexion_l/value	/jointset/hip_l/hip_adduction_l/value	/jointset/hip_l/hip_rotation_l/value	/jointset/back/lumbar_extension/value	/jointset/patellofemoral_l/patellar_flexion_l/value	/jointset/knee_l/knee_flexion_l/value	/jointset/knee_l/knee_adduction_l/value	/jointset/knee_l/knee_rotation_l/value	/jointset/ankle_l/ankle_angle_l/value	/jointset/subtalar_l/subtalar_angle_l/value	/jointset/ground_pelvis/pelvis_tilt/speed	/jointset/ground_pelvis/pelvis_tx/speed	/jointset/ground_pelvis/pelvis_ty/speed	/jointset/hip_l/hip_flexion_l/speed	/jointset/hip_l/hip_adduction_l/speed	/jointset/hip_l/hip_rotation_l/speed	/jointset/back/lumbar_extension/speed	/jointset/patellofemoral_l/patellar_flexion_l/speed	/jointset/knee_l/knee_flexion_l/speed	/jointset/knee_l/knee_adduction_l/speed	/jointset/knee_l/knee_rotation_l/speed	/jointset/ankle_l/ankle_angle_l/speed	/jointset/subtalar_l/subtalar_angle_l/speed	/forceset/tau_hip_flexion_l	/forceset/tau_hip_adduction_l	/forceset/tau_hip_rotation_l	/forceset/tau_knee_flexion_l	/forceset/tau_ankle_angle_l	/forceset/tau_subtalar_angle_l	/forceset/tau_lumbar_extension	lambda_cid13_p0	lambda_cid13_p1	lambda_cid13_p2	lambda_cid13_p3	lambda_cid13_p4	lambda_cid13_p5	lambda_cid14_p0	/jointset/ground_pelvis/pelvis_tilt/accel	/jointset/ground_pelvis/pelvis_tx/accel	/jointset/ground_pelvis/pelvis_ty/accel	/jointset/hip_l/hip_flexion_l/accel	/jointset/hip_l/hip_adduction_l/accel	/jointset/hip_l/hip_rotation_l/accel	/jointset/back/lumbar_extension/accel	/jointset/patellofemoral_l/patellar_flexion_l/accel	/jointset/knee_l/knee_flexion_l/accel	/jointset/knee_l/knee_adduction_l/accel	/jointset/knee_l/knee_rotation_l/accel	/jointset/ankle_l/ankle_angle_l/accel	/jointset/subtalar_l/subtalar_angle_l/accel	gamma_cid13_p0	gamma_cid13_p1	gamma_cid13_p2	gamma_cid13_p3	gamma_cid13_p4	gamma_cid13_p5	gamma_cid14_p0
0.5	-0.1908728455615445	0.04618044453054947	0.7869363792902135	0.9073131195907789	-0.3687639504160337	-0.0108198545146805	-0.39684995555396	0.908692620870299	0.908692620870289	-0.05259265915735811	-0.1745267311318571	0.3158253068595536	0.1571954881022831	-0.6844710194702122	-0.1508441515968989	-0.4602373335767557	2.174950073966243	0.02876285496898102	0.5265441304151696	-0.3151032138775846	1.862922388874165	1.8629223888742	0.2684438229283348	2.030328433533468e-05	0.5289473822182568	0.2562876990479493	-0.09316255637195082	0.02135842924649872	0.002765309477364433	-0.1949660369735954	-0.01265499198915738	0.02015068078737696	0.1097552469991105	-27.93596374339809	-3.994307013691463	0.5091387282123534	1.258054260922007	-441.8942748367683	-73.17911004121784	-6.738066356250984	0.1615226226143573	0.3006203771739832	-0.4146228613270692	-0.9941000023753859	0.1140938623771245	-0.6822508964322125	1.311166924109367	-1.484918326568739	-1.484918326568753	-0.2277512279622173	0.02997771473764474	-0.8083289090262281	0.1152019307684622	-3.862144290185579e-07	-1.783136360772457e-06	4.598604068012906e-06	3.777773723822963e-08	-1.029163173279922e-06	-2.23345750982124e-06	-6.950473427324538e-07
0.51	-0.1977074904648782	0.04468727992036219	0.7823144375414172	0.9290081423012174	-0.3684731434303569	-0.00558549704704189	-0.3999362408039214	0.9272439480243604	0.9272439480243294	-0.04992697882678832	-0.1745263729900462	0.3210726632638824	0.1597598209481073	-0.6823605690535559	-0.1477720967101329	-0.4640450432225093	2.163755533692298	0.02939393920034349	0.5202727757929673	-0.3021246471790389	1.847073070334009	1.847073070334022	0.2646893944924344	3.39429146594013e-05	0.5204433026498509	0.2565284522022229	-0.09758999219371242	0.02269812068387439	0.002050132971912971	-0.1965565980399101	-0.01487480116275914	0.02082611246315107	0.1131326858319918	-28.75366610887197	-4.107097351587357	0.4844272548831016	1.522679759993889	-444.7714135812909	-73.23768886020072	-6.047341496611621	0.25038431055541	0.3130136715187757	-0.3481573948581074	-1.227020477232821	0.03630382987900521	-0.6084398060693009	1.295579883075149	-1.67529526439371	-1.675295264396893	-0.4498492751426111	-0.014713943296967	-0.8836088222997079	-0.02936691690607636	-3.788261969786507e-07	-1.340261372219449e-06	4.738020714782944e-06	1.015492819593927e-07	-1.023363633925761e-06	-1.924193721451889e-06	-6.795514222774661e-07
0.52	-0.2045181152521728	0.0432253389844606	0.777657556220431	0.9505822417214597	-0.3681762879770863	-0.0004156255378222494	-0.402891864718826	0.9456287106636667	0.9456287106636633	-0.04729895490519655	-0.1745262326580908	0.3262325466042167	0.1623249855405424	-0.6796669962623169	-0.1445994167397628	-0.4672252480146482	2.150765415925206	0.0299725484862322	0.513646938732554	-0.2889709468665678	1.829609485927667	1.829609485927658	0.260912541106992	-2.325867407919589e-05	0.5114527694193682	0.2564540483699844	-0.1020174280153913	0.02403781212125931	0.00133495646710461	-0.198147159106225	-0.01709461033636876	0.02150154413892609	0.1165101246649513	-29.56597148460902	-4.230281682113302	0.4721681094666784	1.751395241230499	-447.581732327656	-73.39833928109869	-5.400262490416306	0.27814709753095	0.3207453938947896	-0.2891218906041425	-1.353215501004776	0.1035988732824151	-0.7531473840744537	1.346193646894488	-1.807771499805836	-1.807771499805847	-0.2322362178705544	0.01580947092512024	-0.9056196414415577	0.05217053346608247	-3.594813920177709e-07	-8.767165101348208e-07	4.743065129908807e-06	1.595586747849767e-07	-9.864917379719224e-07	-1.552994002104101e-06	-6.473932205370121e-07
0.53	-0.2112991776377465	0.04179568207787589	0.7729720259068306	0.9720178335293864	-0.3678736800705354	0.004687309956407224	-0.4057149737808653	0.9638310864787709	0.9638310864788016	-0.04470916188583795	-0.1745261620410029	0.3313004301314038	0.1648881751709229	-0.6764589664081867	-0.1413087225883173	-0.469770714769652	2.136055675256585	0.03054352640553856	0.506888615762753	-0.275630633955711	1.810609973073039	1.81060997307305	0.2570415904475556	2.229296963390104e-05	0.5020673128319069	0.2561387534833087	-0.1061197106525771	0.02491648584769691	0.0007070193590803914	-0.200533880500851	-0.01832659767886426	0.02204381463267323	0.1196673833192275	-30.07948460178079	-4.308906572461889	0.4082052092502875	1.72487363346856	-450.5522225518582	-73.59913225275812	-4.796603507887957	0.3550855520645433	0.3367557297467272	-0.2209375025123533	-1.57448532662828	0.0323274285968532	-0.6455081673275916	1.330984851014097	-1.984270681210737	-1.984270681207668	-0.4652232576556713	-0.002464096287850322	-0.9635344648229337	-0.0806139800962094	-3.398615833477312e-07	-5.163235844592208e-07	4.696835803402307e-06	2.018317642614833e-07	-9.437225544796694e-07	-1.226779174243343e-06	-6.181676558388255e-07
0.54	-0.218045568800238	0.04039963697360085	0.7682643052387671	0.9932974015352667	-0.3675656663493171	0.00972099553815853	-0.4084040727662274	0.9818358212647662	0.9818358212647795	-0.04215821812675853	-0.1745259143288888	0.3362727539332314	0.1674467649563651	-0.6727327516456323	-0.1378770562778274	-0.4716633189072559	2.119560655514458	0.03105371141851916	0.4997969562371722	-0.2621689315315352	1.790081280101631	1.790081280101664	0.2531426890811143	1.21603180559286e-05	0.4923408243474658	0.2555340793821646	-0.1102219932896821	0.02579515957417108	7.908225027710381e-05	-0.2029206018954647	-0.01955858502135111	0.02258608512648872	0.12282464197358	-30.58872875879675	-4.396635446802771	0.3552411770471225	1.661239757418131	-453.4728990129883	-73.89723195545196	-4.235817560615234	0.3817840792158776	0.3489398257036663	-0.1585493671241766	-1.710271315705827	0.09144029201724936	-0.8198146952304399	1.370471549558359	-2.113607523161613	-2.113607523161667	-0.2378263592714746	0.004672611866928031	-0.9738260208375354	-0.005705309427511052	-3.199375152547911e-07	-2.700562054489298e-07	4.593878081898299e-06	2.266944755645424e-07	-8.944287124342759e-07	-9.503348646235574e-07	-5.921867108469773e-07
0.55	-0.2247522228733792	0.03903849751391242	0.7635409197148418	1.0144035073583	-0.3672526466826483	0.01468259306107478	-0.4109580064527984	0.9996279326515788	0.9996279326515796	-0.03964640272948447	-0.1745256727689717	0.341146190938687	0.1699980934722821	-0.6685120832315538	-0.1343383650867429	-0.4729024552033944	2.101380304042638	0.03154456737008983	0.4924814794146131	-0.2486146966578303	1.768100231253091	1.768100231253102	0.2492093249294872	2.50236109508075e-05	0.4822883536011191	0.2546817937076774	-0.1143981553371868	0.02668103527155686	-0.0004516925802063099	-0.205180282823324	-0.02114857230517063	0.02292742723237681	0.1259731610961384	-31.24113147485296	-4.365293296969969	0.2755909904623228	1.805595267316291	-456.4523279709758	-73.98340802299704	-3.71700153011778	0.4550880540649134	0.358252402976659	-0.09006966792460394	-1.913982845273873	0.02636713319953478	-0.6941131583509331	1.348365824979923	-2.276352863844652	-2.276352863847728	-0.4727394113671844	-0.001222053497816482	-1.029702819146709	-0.1329847001253397	-2.9909711472457e-07	-2.284117475992423e-08	4.479440397078465e-06	2.509345120515995e-07	-8.436389264351293e-07	-6.726909828982338e-07	-5.647339865402641e-07
0.5600000000000001	-0.2314140942960685	0.03771312869356782	0.7588084480465416	1.035319396510157	-0.3669350266791641	0.01956969601924989	-0.4133763045168887	1.01719303369028	1.017193033690254	-0.03717425056743637	-0.17452546562441	0.3459173541931566	0.1725393002307217	-0.6637762215550221	-0.1307229284090645	-0.4734805477822168	2.081517321276661	0.03197377878055212	0.4848980432887651	-0.2350418070359852	1.744679210478773	1.744679210478764	0.2452100420475165	5.277243904964385e-06	0.4718860741502336	0.2535097278865527	-0.1185743173845621	0.02756691096899156	-0.0009824674110061199	-0.2074399637511702	-0.0227385595889858	0.02326876933834246	0.1291216802188177	-31.89076858701905	-4.341580264732952	0.2053204181576851	1.917658330457644	-459.3962345318537	-74.16040623506584	-3.239056623575189	0.48482273170656	0.364288923022429	-0.02634062366096793	-2.046797574537527	0.07911138379557381	-0.8734065558882649	1.374202499186476	-2.401601908317037	-2.401601908317059	-0.2510101053401084	-0.001849320121199824	-1.043787761745276	-0.06966133875496405	-2.771571152696117e-07	2.255110379435388e-07	4.35122675627964e-06	2.744273387594542e-07	-7.91054007691479e-07	-3.936076146462651e-07	-5.355151270557128e-07
